# xmcd
#
# Track frame offsets:
#	150
#	11100
#	23623
#	33197
#	45972
#	58131
#	73210
#	92404
#	103030
#	121468
#	133135
#	143663
#	154070
#	167081
#	181624
#	196054
#	216343
#	229340
#	242735
#	262541
#
# Disc length: 3666 seconds
#
# Revision: 1
# Processed by: cddbd v1.5.2PL0 Copyright (c) Steve Scherf et al.
# Submitted via: audiograbber 1.83.01
#
DISCID=080e5014
DTITLE=Aretha Franklin - 100 Hits Legends - CD1
DYEAR=1900
DGENRE=
TTITLE0=Respect
TTITLE1=Chain Of Fools
TTITLE2=Good Times
TTITLE3=I Never Loved A Man
TTITLE4=Baby I Love You
TTITLE5=Dr. Feelgood
TTITLE6=A Change Is Gonna Come
TTITLE7=Don't Let Me Lose This Dream
TTITLE8=Drown In My Own Tears
TTITLE9=Ain't Nobody
TTITLE10=96 Tears
TTITLE11=Save me
TTITLE12=Bay Baby
TTITLE13=Do Right Woman
TTITLE14=Night Life
TTITLE15=Going Down Slow
TTITLE16=Never Let Me Go
TTITLE17=Prove It
TTITLE18=I Wonder
TTITLE19=A Natural Woman
EXTD=
EXTT0=
EXTT1=
EXTT2=
EXTT3=
EXTT4=
EXTT5=
EXTT6=
EXTT7=
EXTT8=
EXTT9=
EXTT10=
EXTT11=
EXTT12=
EXTT13=
EXTT14=
EXTT15=
EXTT16=
EXTT17=
EXTT18=
EXTT19=
PLAYORDER=
